<svg width="27" height="29" viewBox="0 0 27 29" fill="none" xmlns="http://www.w3.org/2000/svg">
<path d="M5.5375 3.70833C5.625 5.08042 5.84375 6.42167 6.19375 7.70125L4.44375 9.55125C3.84583 7.70125 3.46667 5.74333 3.33542 3.70833H5.5375ZM19.9167 22.2392C21.1562 22.6092 22.425 22.8404 23.7083 22.9329V25.23C21.7833 25.0912 19.9312 24.6904 18.1667 24.0737L19.9167 22.2392ZM6.9375 0.625H1.83333C1.03125 0.625 0.375 1.31875 0.375 2.16667C0.375 16.6429 11.4729 28.375 25.1667 28.375C25.9688 28.375 26.625 27.6812 26.625 26.8333V21.4529C26.625 20.605 25.9688 19.9112 25.1667 19.9112C23.3583 19.9112 21.5938 19.6029 19.9604 19.0325C19.8146 18.9708 19.6542 18.9554 19.5083 18.9554C19.1292 18.9554 18.7646 19.1096 18.4729 19.4025L15.2646 22.7942C11.1375 20.5587 7.75417 16.9975 5.65417 12.6346L8.8625 9.24292C9.27083 8.81125 9.3875 8.21 9.22708 7.67042C8.6875 5.94375 8.39583 4.09375 8.39583 2.16667C8.39583 1.31875 7.73958 0.625 6.9375 0.625Z" fill="white"/>
</svg>
